<svg xmlns="http://www.w3.org/2000/svg" viewBox="0 0 409.67 605.26"><defs><style>.cls-1{fill:#222c40;}.cls-2{fill:none;stroke:#cecece;stroke-miterlimit:10;stroke-width:2.12px;}.cls-3{fill:#cecece;}</style></defs><g id="Layer_2" data-name="Layer 2"><g id="Objects"><path class="cls-1" d="M154.67,441.8h-.53A36.95,36.95,0,0,1,130,377.39a1,1,0,0,0,.33-.76,1.06,1.06,0,0,0-1.06-1.06H3a3,3,0,0,1-3-3V247.2a7.94,7.94,0,0,1,11.13-7.27,8.06,8.06,0,0,1,2.65,1.9A30.93,30.93,0,1,0,36.54,190a31,31,0,0,0-22.76,10,8,8,0,0,1-5.85,2.57A7.92,7.92,0,0,1,0,194.61V69.25a3,3,0,0,1,3-3H129.23a1.07,1.07,0,0,0,1.06-1.06,1,1,0,0,0-.33-.77,36.94,36.94,0,1,1,49.4,0,1,1,0,0,0-.32.76,1.07,1.07,0,0,0,1.06,1.06H306.32a3,3,0,0,1,3,3V194.61A7.93,7.93,0,0,1,295.56,200a30.93,30.93,0,1,0-22.77,51.85,31,31,0,0,0,22.76-10,8,8,0,0,1,5.85-2.57,7.94,7.94,0,0,1,7.93,7.94V372.56a3,3,0,0,1-3,3H180.1a1.06,1.06,0,0,0-1.06,1.05,1,1,0,0,0,.32.77,36.93,36.93,0,0,1-24.69,64.41Zm-.45-6h.45a30.93,30.93,0,0,0,20.67-53.93,7.07,7.07,0,0,1,4.76-12.31H303.31V247.2a1.9,1.9,0,0,0-.56-1.36,2,2,0,0,0-2.77.07,37.07,37.07,0,0,1-27.19,11.94,36.95,36.95,0,1,1,.57-73.89A37.14,37.14,0,0,1,300,195.9a2.13,2.13,0,0,0,.65.46,1.83,1.83,0,0,0,.77.16,1.92,1.92,0,0,0,1.91-1.91V72.26H180.1a7.08,7.08,0,0,1-4.76-12.32,30.92,30.92,0,1,0-41.35,0,7.08,7.08,0,0,1-4.76,12.32H6V194.61A1.94,1.94,0,0,0,6.58,196a2,2,0,0,0,2.77-.07,36.95,36.95,0,0,1,53.5-.94A37,37,0,0,1,36,257.84,37.09,37.09,0,0,1,9.35,245.91a1.9,1.9,0,0,0-.65-.47,1.83,1.83,0,0,0-.77-.16A1.92,1.92,0,0,0,6,247.2V369.55H129.23A7.07,7.07,0,0,1,134,381.86a31,31,0,0,0-10.24,22.52,31,31,0,0,0,30.47,31.4Z"/><polyline class="cls-2" points="154.67 452.42 154.67 595.81 400.22 595.81"/><circle class="cls-3" cx="400.22" cy="595.81" r="9.44"/></g></g></svg>