<svg display="block" role="presentation" viewBox="0 0 24 24" xmlns="http://www.w3.org/2000/svg"><path d="M 0.5 13 C -0.167 9.333 -0.167 6 0.5 3 C 0.767 1.533 1.6 0.7 3 0.5 C 8.333 -0.167 13.667 -0.167 19 0.5 C 20.4 0.7 21.233 1.533 21.5 3 C 22.167 6 22.167 9.333 21.5 13 C 21.233 14.467 20.4 15.3 19 15.5 C 13.667 16.167 8.333 16.167 3 15.5 C 1.6 15.3 0.767 14.467 0.5 13 Z M 8.5 4.5 L 8.5 11.5 L 14.5 8 Z" fill="transparent" height="16px" id="IL5LaBUiM" stroke-dasharray="" stroke-linecap="round" stroke-linejoin="round" stroke-width="2" stroke="var(--1df8v9o, rgb(0,0,0))" transform="translate(1 4)" width="22px"/></svg>