<svg display="block" role="presentation" viewBox="0 0 24 24" xmlns="http://www.w3.org/2000/svg"><path d="M 0 4 C 0 1.791 1.791 0 4 0 C 6.209 0 8 1.791 8 4 C 8 6.209 6.209 8 4 8 C 1.791 8 0 6.209 0 4 Z" fill="transparent" height="8px" id="NQawF2yL1" stroke-dasharray="" stroke-linecap="round" stroke-linejoin="round" stroke-width="2" stroke="var(--1df8v9o, rgb(0,0,0))" transform="translate(8 8)" width="8px"/><path d="M 5 20 C 2.239 20 0 17.761 0 15 L 0 5 C 0 2.239 2.239 0 5 0 L 15 0 C 17.761 0 20 2.239 20 5 L 20 15 C 20 17.761 17.761 20 15 20 Z" fill="transparent" height="20px" id="PagLHxSxQ" stroke-dasharray="" stroke-linecap="round" stroke-linejoin="round" stroke-width="2" stroke="var(--1df8v9o, rgb(0,0,0))" transform="translate(2 2)" width="20px"/><path d="M 0 0 L 0 0" fill="transparent" height="1px" id="HgrPz15zt" stroke-dasharray="" stroke-linecap="round" stroke-linejoin="round" stroke-width="2" stroke="var(--1df8v9o, rgb(0,0,0))" transform="translate(17.5 6.5)" width="1px"/></svg>