<?xml version="1.0" encoding="UTF-8"?>
<!DOCTYPE svg PUBLIC "-//W3C//DTD SVG 1.1//EN" "http://www.w3.org/Graphics/SVG/1.1/DTD/svg11.dtd">
<svg xmlns="http://www.w3.org/2000/svg" version="1.1" width="64px" height="64px" style="shape-rendering:geometricPrecision; text-rendering:geometricPrecision; image-rendering:optimizeQuality; fill-rule:evenodd; clip-rule:evenodd" xmlns:xlink="http://www.w3.org/1999/xlink">
<g><path style="opacity:0.903" fill="#212b3f" d="M 25.5,-0.5 C 29.5,-0.5 33.5,-0.5 37.5,-0.5C 45.2467,1.29849 51.7467,5.29849 57,11.5C 58.5082,9.16161 60.6748,8.16161 63.5,8.5C 63.5,10.8333 63.5,13.1667 63.5,15.5C 62.5869,17.9333 61.5869,20.4333 60.5,23C 55.6872,23.1715 51.1872,22.0049 47,19.5C 46.2428,16.5243 47.4094,14.691 50.5,14C 39.6311,3.94668 27.9644,2.94668 15.5,11C 11.2555,15.5699 7.4222,20.4032 4,25.5C 2.52949,24.6195 1.69616,23.2861 1.5,21.5C 5.37989,9.61817 13.3799,2.28484 25.5,-0.5 Z"/></g>
<g><path style="opacity:0.907" fill="#212b3f" d="M 37.5,63.5 C 33.5,63.5 29.5,63.5 25.5,63.5C 17.7533,61.7015 11.2533,57.7015 6,51.5C 4.49185,53.8384 2.32518,54.8384 -0.5,54.5C -0.5,52.1667 -0.5,49.8333 -0.5,47.5C 0.413092,45.0667 1.41309,42.5667 2.5,40C 7.31278,39.8285 11.8128,40.9951 16,43.5C 16.7572,46.4757 15.5906,48.309 12.5,49C 23.3689,59.0533 35.0356,60.0533 47.5,52C 51.7445,47.4301 55.5778,42.5968 59,37.5C 60.4705,38.3805 61.3038,39.7139 61.5,41.5C 57.6201,53.3818 49.6201,60.7152 37.5,63.5 Z"/></g>
</svg>
