<?xml version="1.0" encoding="UTF-8"?>
<!DOCTYPE svg PUBLIC "-//W3C//DTD SVG 1.1//EN" "http://www.w3.org/Graphics/SVG/1.1/DTD/svg11.dtd">
<svg xmlns="http://www.w3.org/2000/svg" version="1.1" width="64px" height="64px" style="shape-rendering:geometricPrecision; text-rendering:geometricPrecision; image-rendering:optimizeQuality; fill-rule:evenodd; clip-rule:evenodd" xmlns:xlink="http://www.w3.org/1999/xlink">
<g><path style="opacity:0.908" fill="#222c3f" d="M 63.5,16.5 C 63.5,20.5 63.5,24.5 63.5,28.5C 55.0173,40.7569 44.3506,50.7569 31.5,58.5C 18.6494,50.7569 7.98271,40.7569 -0.5,28.5C -0.5,24.5 -0.5,20.5 -0.5,16.5C 4.98485,5.71594 13.6515,2.21594 25.5,6C 27.6414,7.30764 29.6414,8.80764 31.5,10.5C 40.0692,3.11137 49.0692,2.61137 58.5,9C 60.4524,11.4256 62.119,13.9256 63.5,16.5 Z M 12.5,11.5 C 19.3163,10.0764 24.6496,12.243 28.5,18C 30.5,18.6667 32.5,18.6667 34.5,18C 40.5995,10.4339 47.4328,9.60056 55,15.5C 58.3333,20.1667 58.3333,24.8333 55,29.5C 47.9112,37.4271 40.0778,44.4271 31.5,50.5C 22.2251,44.0598 14.0584,36.3932 7,27.5C 4.75249,20.742 6.58582,15.4087 12.5,11.5 Z"/></g>
</svg>
