<?xml version="1.0" encoding="UTF-8"?>
<!DOCTYPE svg PUBLIC "-//W3C//DTD SVG 1.1//EN" "http://www.w3.org/Graphics/SVG/1.1/DTD/svg11.dtd">
<svg xmlns="http://www.w3.org/2000/svg" version="1.1" width="64px" height="64px" style="shape-rendering:geometricPrecision; text-rendering:geometricPrecision; image-rendering:optimizeQuality; fill-rule:evenodd; clip-rule:evenodd" xmlns:xlink="http://www.w3.org/1999/xlink">
<g><path style="opacity:0.921" fill="#212b3f" d="M 63.5,23.5 C 63.5,28.8333 63.5,34.1667 63.5,39.5C 54.5006,60.1194 39.5006,65.9528 18.5,57C 14.2165,54.5535 11.2165,51.0535 9.5,46.5C 10.3779,44.061 12.0446,43.2277 14.5,44C 23.609,55.1227 34.609,57.456 47.5,51C 58.9042,40.7912 60.4042,29.2912 52,16.5C 39.7118,5.59427 27.7118,5.9276 16,17.5C 14.1256,19.569 13.1256,21.9023 13,24.5C 15.9733,21.5612 18.4733,21.8945 20.5,25.5C 17.8046,29.0244 14.4713,31.8577 10.5,34C 8.74117,34.7975 7.0745,34.6309 5.5,33.5C 3.82883,30.5079 1.82883,27.8413 -0.5,25.5C -0.5,23.5 -0.5,21.5 -0.5,19.5C 2.54679,18.8554 4.71345,19.8554 6,22.5C 13.8737,4.31652 27.3737,-1.85014 46.5,4C 54.611,8.40156 60.2777,14.9016 63.5,23.5 Z"/></g>
<g><path style="opacity:0.898" fill="#212b3e" d="M 33.5,14.5 C 35.0174,14.5106 36.1841,15.1772 37,16.5C 35.4216,25.2897 38.0883,32.2897 45,37.5C 45.9337,42.0833 44.1004,43.5833 39.5,42C 37,39.5 34.5,37 32,34.5C 30.9372,27.556 31.4372,20.8894 33.5,14.5 Z"/></g>
</svg>
