<?xml version="1.0" encoding="UTF-8"?>
<!DOCTYPE svg PUBLIC "-//W3C//DTD SVG 1.1//EN" "http://www.w3.org/Graphics/SVG/1.1/DTD/svg11.dtd">
<svg xmlns="http://www.w3.org/2000/svg" version="1.1" width="64px" height="64px" style="shape-rendering:geometricPrecision; text-rendering:geometricPrecision; image-rendering:optimizeQuality; fill-rule:evenodd; clip-rule:evenodd" xmlns:xlink="http://www.w3.org/1999/xlink">
<g><path style="opacity:0.877" fill="#212b3e" d="M 23.5,-0.5 C 28.8333,-0.5 34.1667,-0.5 39.5,-0.5C 59.5981,9.63793 64.0981,24.6379 53,44.5C 47.3016,51.3641 41.1349,57.6974 34.5,63.5C 32.5,63.5 30.5,63.5 28.5,63.5C 20.1158,56.6145 12.9492,48.6145 7,39.5C 0.143508,20.8972 5.64351,7.56386 23.5,-0.5 Z M 28.5,3.5 C 43.4219,4.08821 52.0885,11.7549 54.5,26.5C 51.2663,40.2821 43.5996,50.9487 31.5,58.5C 19.4004,50.9487 11.7337,40.2821 8.5,26.5C 10.2485,14.426 16.9152,6.75936 28.5,3.5 Z M 30.5,17.5 C 37.8364,18.643 40.3364,22.643 38,29.5C 31.4542,35.0458 26.6209,33.7125 23.5,25.5C 24.485,21.5228 26.8183,18.8561 30.5,17.5 Z"/></g>
<g><path style="opacity:0.883" fill="#212c3f" d="M 26.5,13.5 C 39.3202,12.1527 44.8202,17.8194 43,30.5C 39.3449,37.0702 33.8449,39.2368 26.5,37C 19.9298,33.3449 17.7632,27.8449 20,20.5C 21.6941,17.6424 23.8607,15.309 26.5,13.5 Z M 30.5,17.5 C 26.8183,18.8561 24.485,21.5228 23.5,25.5C 26.6209,33.7125 31.4542,35.0458 38,29.5C 40.3364,22.643 37.8364,18.643 30.5,17.5 Z"/></g>
</svg>
