<?xml version="1.0" encoding="UTF-8"?>
<!DOCTYPE svg PUBLIC "-//W3C//DTD SVG 1.1//EN" "http://www.w3.org/Graphics/SVG/1.1/DTD/svg11.dtd">
<svg xmlns="http://www.w3.org/2000/svg" version="1.1" width="64px" height="64px" style="shape-rendering:geometricPrecision; text-rendering:geometricPrecision; image-rendering:optimizeQuality; fill-rule:evenodd; clip-rule:evenodd" xmlns:xlink="http://www.w3.org/1999/xlink">
<g><path style="opacity:0.881" fill="#212b3f" d="M 26.5,7.5 C 39.3202,6.15271 44.8202,11.8194 43,24.5C 41.5,27.3333 39.3333,29.5 36.5,31C 39.6996,31.5985 42.0329,33.2651 43.5,36C 42.9019,37.3012 41.9019,38.1345 40.5,38.5C 25.2094,33.6452 15.5427,38.9786 11.5,54.5C 10.3112,55.4287 8.97782,55.762 7.5,55.5C 7.92547,42.892 14.2588,34.7253 26.5,31C 15.9824,23.1897 15.9824,15.3564 26.5,7.5 Z M 28.5,12.5 C 37.8504,12.3654 40.517,16.532 36.5,25C 30.0133,28.0872 25.6799,26.2539 23.5,19.5C 24.0649,16.2842 25.7316,13.9509 28.5,12.5 Z"/></g>
<g><path style="opacity:0.9" fill="#212c40" d="M 45.5,39.5 C 50.2702,40.2608 53.6036,42.9275 55.5,47.5C 53.6036,52.0725 50.2702,54.7392 45.5,55.5C 45.178,53.2776 45.8446,51.4443 47.5,50C 44.854,49.5026 42.1873,49.3359 39.5,49.5C 39.5,48.1667 39.5,46.8333 39.5,45.5C 42.1873,45.6641 44.854,45.4974 47.5,45C 45.8446,43.5557 45.178,41.7224 45.5,39.5 Z"/></g>
</svg>
