<?xml version="1.0" encoding="UTF-8"?>
<!DOCTYPE svg PUBLIC "-//W3C//DTD SVG 1.1//EN" "http://www.w3.org/Graphics/SVG/1.1/DTD/svg11.dtd">
<svg xmlns="http://www.w3.org/2000/svg" version="1.1" width="64px" height="64px" style="shape-rendering:geometricPrecision; text-rendering:geometricPrecision; image-rendering:optimizeQuality; fill-rule:evenodd; clip-rule:evenodd" xmlns:xlink="http://www.w3.org/1999/xlink">
<g><path style="opacity:0.9" fill="#212b3f" d="M 28.5,1.5 C 42.4952,2.11456 48.4952,9.44789 46.5,23.5C 50.5616,23.7241 53.395,25.7241 55,29.5C 55.6667,38.1667 55.6667,46.8333 55,55.5C 53.0395,58.1353 50.5395,59.9686 47.5,61C 36.8333,61.6667 26.1667,61.6667 15.5,61C 12.4605,59.9686 9.96053,58.1353 8,55.5C 7.33333,46.8333 7.33333,38.1667 8,29.5C 9.60502,25.7241 12.4384,23.7241 16.5,23.5C 14.3482,12.5116 18.3482,5.17824 28.5,1.5 Z M 27.5,8.5 C 37.7634,8.10704 42.0967,13.107 40.5,23.5C 34.5,23.5 28.5,23.5 22.5,23.5C 21.3748,17.4679 23.0414,12.4679 27.5,8.5 Z M 16.5,29.5 C 26.8857,29.1907 37.219,29.524 47.5,30.5C 48.1924,31.0253 48.6924,31.6919 49,32.5C 49.6667,39.1667 49.6667,45.8333 49,52.5C 47.8289,53.8932 46.3289,54.7265 44.5,55C 34.7583,55.9201 25.0916,55.5867 15.5,54C 15,53.5 14.5,53 14,52.5C 13.3333,45.8333 13.3333,39.1667 14,32.5C 14.6979,31.3094 15.5313,30.3094 16.5,29.5 Z"/></g>
<g><path style="opacity:0.879" fill="#222c3f" d="M 28.5,35.5 C 35.1584,34.3445 37.1584,36.8445 34.5,43C 27.7496,44.4689 25.7496,41.9689 28.5,35.5 Z"/></g>
</svg>
