<?xml version="1.0" encoding="UTF-8"?>
<!DOCTYPE svg PUBLIC "-//W3C//DTD SVG 1.1//EN" "http://www.w3.org/Graphics/SVG/1.1/DTD/svg11.dtd">
<svg xmlns="http://www.w3.org/2000/svg" version="1.1" width="64px" height="64px" style="shape-rendering:geometricPrecision; text-rendering:geometricPrecision; image-rendering:optimizeQuality; fill-rule:evenodd; clip-rule:evenodd" xmlns:xlink="http://www.w3.org/1999/xlink">
<g><path style="opacity:0.826" fill="#212a3e" d="M 31.5,1.5 C 32.5,1.5 33.5,1.5 34.5,1.5C 34.2865,3.14387 34.6198,4.64387 35.5,6C 49.0789,9.08084 56.4123,17.5808 57.5,31.5C 57.2341,39.8645 53.9008,46.6979 47.5,52C 44.9085,52.3008 44.0752,51.1341 45,48.5C 54.1981,40.2529 55.8647,30.5862 50,19.5C 45.9997,13.5872 40.4997,10.4206 33.5,10C 34.3366,11.0113 34.67,12.1779 34.5,13.5C 30.4528,13.4648 27.7861,11.4648 26.5,7.5C 28.1897,5.48073 29.8564,3.48073 31.5,1.5 Z"/></g>
<g><path style="opacity:0.819" fill="#212a3d" d="M 15.5,10.5 C 17.2517,10.4176 18.2517,11.2509 18.5,13C 6.19551,25.639 6.52885,37.9724 19.5,50C 22.6019,52.0364 25.9352,53.0364 29.5,53C 28.6634,51.9887 28.33,50.8221 28.5,49.5C 37.117,51.5373 38.117,55.3706 31.5,61C 30.552,61.4828 29.552,61.6495 28.5,61.5C 28.7135,59.8561 28.3802,58.3561 27.5,57C 10.0918,52.3561 3.25848,41.1895 7,23.5C 8.45253,18.2234 11.2859,13.8901 15.5,10.5 Z"/></g>
<g><path style="opacity:0.84" fill="#212b3d" d="M 26.5,16.5 C 43.7649,16.2567 49.5982,24.2567 44,40.5C 37.7488,47.0107 30.5821,48.1773 22.5,44C 15.9893,37.7488 14.8227,30.5821 19,22.5C 21.1141,19.8792 23.6141,17.8792 26.5,16.5 Z M 27.5,20.5 C 38.3181,19.8169 43.1514,24.8169 42,35.5C 38.9596,41.6026 34.1263,43.7693 27.5,42C 21.3974,38.9596 19.2307,34.1263 21,27.5C 22.6941,24.6424 24.8607,22.309 27.5,20.5 Z"/></g>
<g><path style="opacity:0.795" fill="#212a3e" d="M 30.5,21.5 C 32.5158,22.4564 34.3492,23.7898 36,25.5C 36.4828,26.448 36.6495,27.448 36.5,28.5C 29.2981,27.1916 28.9648,28.025 35.5,31C 36.0814,31.8926 36.4148,32.8926 36.5,34C 35.6287,36.5523 34.2954,38.8856 32.5,41C 31.8333,41.6667 31.1667,41.6667 30.5,41C 29.6667,39.5 28.5,38.3333 27,37.5C 26.5172,36.552 26.3505,35.552 26.5,34.5C 28.1439,34.2865 29.6439,34.6198 31,35.5C 31.5,35 32,34.5 32.5,34C 29.3804,33.2909 27.3804,31.4576 26.5,28.5C 27.8232,26.1729 29.1565,23.8396 30.5,21.5 Z"/></g>
</svg>
