<?xml version="1.0" encoding="UTF-8"?>
<!DOCTYPE svg PUBLIC "-//W3C//DTD SVG 1.1//EN" "http://www.w3.org/Graphics/SVG/1.1/DTD/svg11.dtd">
<svg xmlns="http://www.w3.org/2000/svg" version="1.1" width="64px" height="64px" style="shape-rendering:geometricPrecision; text-rendering:geometricPrecision; image-rendering:optimizeQuality; fill-rule:evenodd; clip-rule:evenodd" xmlns:xlink="http://www.w3.org/1999/xlink">
<g><path style="opacity:0.863" fill="#000" d="M 29.5,3.5 C 32.4245,3.45982 35.0912,4.29315 37.5,6C 45.2507,13.0794 52.2507,20.7461 58.5,29C 58.3552,29.772 58.0219,30.4387 57.5,31C 53.9743,32.3368 50.3076,32.8368 46.5,32.5C 46.6664,40.1739 46.4997,47.8406 46,55.5C 44.6811,57.4875 42.8477,58.6541 40.5,59C 34.5,59.6667 28.5,59.6667 22.5,59C 20.1523,58.6541 18.3189,57.4875 17,55.5C 16.5003,47.8406 16.3336,40.1739 16.5,32.5C 12.4161,32.9569 8.5828,32.2902 5,30.5C 4.33333,29.5 4.33333,28.5 5,27.5C 12.3988,18.6 20.5654,10.6 29.5,3.5 Z M 29.5,8.5 C 30.8734,8.34332 32.2068,8.50999 33.5,9C 39.5,15 45.5,21 51.5,27C 48.5738,27.2178 45.7405,27.7178 43,28.5C 42.6667,36.5 42.3333,44.5 42,52.5C 41.5,53 41,53.5 40.5,54C 34.5,54.6667 28.5,54.6667 22.5,54C 22,53.5 21.5,53 21,52.5C 20.6667,44.5 20.3333,36.5 20,28.5C 17.2595,27.7178 14.4262,27.2178 11.5,27C 17.7028,20.9648 23.7028,14.7981 29.5,8.5 Z"/></g>
<g><path style="opacity:0.844" fill="#000" d="M 30.5,32.5 C 33.6136,33.0913 36.1136,34.758 38,37.5C 38.8333,40.6667 37.6667,41.8333 34.5,41C 32.088,37.838 29.7546,38.0047 27.5,41.5C 25.7172,40.6518 25.2172,39.3185 26,37.5C 27.7073,35.9625 29.2073,34.2959 30.5,32.5 Z"/></g>
<g><path style="opacity:0.862" fill="#000" d="M 30.5,41.5 C 33.6136,42.0913 36.1136,43.758 38,46.5C 38.8333,49.6667 37.6667,50.8333 34.5,50C 32.088,46.838 29.7546,47.0047 27.5,50.5C 25.7172,49.6518 25.2172,48.3185 26,46.5C 27.7073,44.9625 29.2073,43.2959 30.5,41.5 Z"/></g>
</svg>
