<?xml version="1.0" encoding="UTF-8"?>
<!DOCTYPE svg PUBLIC "-//W3C//DTD SVG 1.1//EN" "http://www.w3.org/Graphics/SVG/1.1/DTD/svg11.dtd">
<svg xmlns="http://www.w3.org/2000/svg" version="1.1" width="128px" height="128px" style="shape-rendering:geometricPrecision; text-rendering:geometricPrecision; image-rendering:optimizeQuality; fill-rule:evenodd; clip-rule:evenodd" xmlns:xlink="http://www.w3.org/1999/xlink">
<g><path style="opacity:0.923" fill="#222b3f" d="M 58.5,7.5 C 81.0066,7.17572 92.5066,18.1757 93,40.5C 88.6001,60.7903 76.1001,69.2903 55.5,66C 41.7474,61.2425 34.4141,51.5758 33.5,37C 34.8834,21.1271 43.2167,11.2937 58.5,7.5 Z M 58.5,14.5 C 74.874,13.6778 84.2074,21.3445 86.5,37.5C 84.4904,50.8429 76.8237,58.5096 63.5,60.5C 44.9403,56.7052 38.107,45.7052 43,27.5C 46.5421,21.1569 51.7088,16.8236 58.5,14.5 Z"/></g>
<g><path style="opacity:0.905" fill="#222c40" d="M 59.5,71.5 C 83.373,71.0134 101.206,81.0134 113,101.5C 115.165,106.658 116.165,111.991 116,117.5C 114,120.167 112,120.167 110,117.5C 104.76,92.441 89.2598,79.441 63.5,78.5C 37.7402,79.441 22.2402,92.441 17,117.5C 13.5089,120.446 11.3422,119.612 10.5,115C 13.3748,96.1199 23.7082,83.1199 41.5,76C 47.4789,73.8385 53.4789,72.3385 59.5,71.5 Z"/></g>
</svg>
