<svg height="512" viewBox="0 0 24 24" width="512" xmlns="http://www.w3.org/2000/svg"><g id="Layer_2" data-name="Layer 2"><path d="m13.455 17.136h-2.91a.546.546 0 0 0 -.545.546v2.182a2 2 0 0 0 4 0v-2.182a.546.546 0 0 0 -.545-.546z" fill="#fff"/><path d="m19.75 4v10a.755.755 0 0 1 -.75.75h-14a.755.755 0 0 1 -.75-.75v-10a2.748 2.748 0 0 1 2.75-2.75h.76a2.659 2.659 0 0 1 1.49.44 2.535 2.535 0 0 1 .75.71 2.535 2.535 0 0 1 .75-.71 2.659 2.659 0 0 1 1.49-.44h4.76a2.748 2.748 0 0 1 2.75 2.75z" fill="#fff"/><rect fill="#0bf" height="4" rx="2" width="16" x="4" y="13.5"/><path d="m5 14.02a.75.75 0 0 1 -.75-.75v-9.27a2.753 2.753 0 0 1 2.75-2.75h.76a2.734 2.734 0 0 1 2.24 1.156 2.732 2.732 0 0 1 2.24-1.156h4.76a2.753 2.753 0 0 1 2.75 2.75v7a.75.75 0 0 1 -1.5 0v-7a1.252 1.252 0 0 0 -1.25-1.25h-4.76a1.247 1.247 0 0 0 -1.119.695l-.452.893a.78.78 0 0 1 -1.338 0l-.451-.89a1.247 1.247 0 0 0 -1.12-.7h-.76a1.252 1.252 0 0 0 -1.25 1.252v9.27a.75.75 0 0 1 -.75.75z"/><path d="m10 6.75a.75.75 0 0 1 -.75-.75v-2a.75.75 0 0 1 1.5 0v2a.75.75 0 0 1 -.75.75z"/><path d="m12 22.75a2.752 2.752 0 0 1 -2.75-2.75v-3a.75.75 0 0 1 .75-.75h4a.75.75 0 0 1 .75.75v3a2.752 2.752 0 0 1 -2.75 2.75zm-1.25-5v2.25a1.25 1.25 0 0 0 2.5 0v-2.25z"/><path d="m18 17.75h-12a2.75 2.75 0 0 1 0-5.5h12a2.75 2.75 0 0 1 0 5.5zm-12-4a1.25 1.25 0 0 0 0 2.5h12a1.25 1.25 0 0 0 0-2.5z"/></g></svg>