<svg xmlns="http://www.w3.org/2000/svg" xmlns:xlink="http://www.w3.org/1999/xlink" width="296.721" height="215.77" viewBox="0 0 296.721 215.77"><defs><clipPath id="a"><rect width="114.104" height="107.043" fill="none"/></clipPath></defs><g transform="translate(-575 -385)"><path d="M859.5,545.2h220a14.98,14.98,0,0,1,15,15v170a14.98,14.98,0,0,1-15,15h-220a14.98,14.98,0,0,1-15-15v-170A14.98,14.98,0,0,1,859.5,545.2Z" transform="translate(-269.5 -160.2)" fill="#f5f5f5"/><g transform="translate(0 -6)"><path d="M747.052,549H953.335c3.879,0,7.052,3.6,7.052,8v34c0,4.4-3.174,8-7.052,8H747.052c-3.879,0-7.052-3.6-7.052-8V557C740,552.6,743.174,549,747.052,549Z" transform="translate(-151 -144)" fill="#fff"/><g transform="translate(-150 -144)"><path d="M808,562h52a4.012,4.012,0,0,1,4,4h0a4.012,4.012,0,0,1-4,4H808a4.012,4.012,0,0,1-4-4h0A4.012,4.012,0,0,1,808,562Z" fill="#f5f5f5"/><path d="M808,577H925a4.012,4.012,0,0,1,4,4h0a4.012,4.012,0,0,1-4,4H808a4.012,4.012,0,0,1-4-4h0A4.012,4.012,0,0,1,808,577Z" fill="#f5f5f5"/></g><path d="M768,558h16a8.023,8.023,0,0,1,8,8v16a8.023,8.023,0,0,1-8,8H768a8.023,8.023,0,0,1-8-8V566A8.023,8.023,0,0,1,768,558Z" transform="translate(-150 -144)" fill="#f5f5f5"/></g><g transform="translate(0 55)"><path d="M747.052,549H953.335c3.879,0,7.052,3.6,7.052,8v34c0,4.4-3.174,8-7.052,8H747.052c-3.879,0-7.052-3.6-7.052-8V557C740,552.6,743.174,549,747.052,549Z" transform="translate(-151 -144)" fill="#fff"/><g transform="translate(-150 -144)"><path d="M808,562h52a4.012,4.012,0,0,1,4,4h0a4.012,4.012,0,0,1-4,4H808a4.012,4.012,0,0,1-4-4h0A4.012,4.012,0,0,1,808,562Z" fill="#f5f5f5"/><path d="M808,577H925a4.012,4.012,0,0,1,4,4h0a4.012,4.012,0,0,1-4,4H808a4.012,4.012,0,0,1-4-4h0A4.012,4.012,0,0,1,808,577Z" fill="#f5f5f5"/></g><path d="M768,558h16a8.023,8.023,0,0,1,8,8v16a8.023,8.023,0,0,1-8,8H768a8.023,8.023,0,0,1-8-8V566A8.023,8.023,0,0,1,768,558Z" transform="translate(-150 -144)" fill="#f5f5f5"/></g><g transform="translate(0 116)"><path d="M747.052,549H953.335c3.879,0,7.052,3.6,7.052,8v34c0,4.4-3.174,8-7.052,8H747.052c-3.879,0-7.052-3.6-7.052-8V557C740,552.6,743.174,549,747.052,549Z" transform="translate(-151 -144)" fill="#fff"/><g transform="translate(-150 -144)"><path d="M808,562h52a4.012,4.012,0,0,1,4,4h0a4.012,4.012,0,0,1-4,4H808a4.012,4.012,0,0,1-4-4h0A4.012,4.012,0,0,1,808,562Z" fill="#f5f5f5"/><path d="M808,577H925a4.012,4.012,0,0,1,4,4h0a4.012,4.012,0,0,1-4,4H808a4.012,4.012,0,0,1-4-4h0A4.012,4.012,0,0,1,808,577Z" fill="#f5f5f5"/></g><path d="M768,558h16a8.023,8.023,0,0,1,8,8v16a8.023,8.023,0,0,1-8,8H768a8.023,8.023,0,0,1-8-8V566A8.023,8.023,0,0,1,768,558Z" transform="translate(-150 -144)" fill="#f5f5f5"/></g><g transform="matrix(0.995, -0.105, 0.105, 0.995, 747.053, 494.314)"><path d="M-519.022-283.234l-59.586-6.253,18.906-44.726,20.266-47.94A14.486,14.486,0,0,1-526.059-391a14.369,14.369,0,0,1,11.538,5.74l19.389,25.578-6.574,62.448a15.725,15.725,0,0,1-15.641,14.087A16.028,16.028,0,0,1-519.022-283.234Z" transform="translate(571 380)" fill="#f5f5f5"/><g clip-path="url(#a)"><path d="M58.02,100.831,8.78,106.98A7.8,7.8,0,0,1,.625,96.205l19.3-45.718L39.215,4.77A7.8,7.8,0,0,1,52.624,3.1L82.569,42.664l29.945,39.569a7.8,7.8,0,0,1-5.254,12.449Z" fill="#c4c4c4"/><path d="M57.115,93.584,11.2,99.318a2.653,2.653,0,0,1-2.773-3.664l17.991-42.63,17.767-42.1a2.987,2.987,0,0,1,5.134-.641L76.893,46.721l28.03,37.037a2.551,2.551,0,0,1-1.718,4.07Z" fill="#f5f5f5"/><path d="M44.052,41.688l11.055-1.381L56.657,67.7l-7.37.92ZM50.567,82.01a5.153,5.153,0,0,1-2.113-3.629,5.012,5.012,0,0,1,1.134-3.973,6.353,6.353,0,0,1,8.2-1.025,5.014,5.014,0,0,1,2.075,3.572,5.158,5.158,0,0,1-1.155,4.037,6.094,6.094,0,0,1-8.143,1.018" fill="#c4c4c4"/></g></g></g></svg>